<?xml version="1.0" encoding="UTF-8"?><svg id="DEDICATED_TO_LAMADAEMON_DO_NOT_COPY" xmlns="http://www.w3.org/2000/svg" viewBox="0 0 794 845.32"><circle id="DEDICATED_TO_LAMADAEMON_IiiIIiIIiIi" cx="397" cy="447.58" r="395" style="fill:#cde7f8; stroke:#cde7f8; stroke-linecap:round; stroke-miterlimit:10; stroke-width:4px;"/><g id="DEDICATED_TO_LAMADAEMON_iIIiIIIiiII"><path id="DEDICATED_TO_LAMADAEMON_iIiiIiiiiiI" d="m767.53,558.89c-3.93-6.18-8.55-11.17-14.3-15.53-5.62-4.43-11.99-7.72-18.6-11.15-1.12-.54-.6-2.36.66-2.18,4.89.64,9.65,2.1,14.16,4.2.31-.54.63-1.08.88-1.62.45-1.03.99-2.16.63-2.71-.01-.02-.01.03-.02-.04l-.03-.27c-.03-.15-.05-.21-.07-.24-.03.06-.03-.06,0,0,0,0,0,0,0,0,.05-.52-.38-1.46-.86-2-1.63-1.71-3.89-2.86-6.07-4.04-4.59-2.35-9.11-4.72-13.8-6.6-6.84-2.37-14.47-3.79-21.73-4.36-1.49.55-3,.97-4.52,1.32-1.1.26-1.71-1.27-.76-1.85,2.72-1.93,10.52-6.23,8.85-9.72-1.3-2.91-4.59-3.42-7.58-3.75-4.35-.31-9.19-.26-13.56.9-9.31,2.59-18.22,6.75-26.77,11.33,3.52,4.71,6.74,9.63,9.58,14.78,8.86,15.75,13.95,33.42,16.23,51.27,4.44,27.19,2.1,54.02-10.22,78.44.34.8.54,1.73.84,2.47.35.89.82,1.57,1.45,1.94,2.35,1.69,5.28,2.54,7.96,2.62,1.5.04,2.51.1,3.66-.16,3.02-1.26,5.12-4.05,7.52-6.68.37-.42.78-.69,1.21-.86.03-.07.05-.15.09-.22.17-.37.66-.48.97-.22.09.07.18.16.27.23,1.56.14,2.95,1.48,2.91,3.15.54.57,1.12,1.09,1.81,1.45,1.36.48,2.89.46,4.31.46,1.82-.14,2.81-1.06,4.3-2.7,2.97-3.5,5.36-7.1,8.19-10.83-.66-1.99-.98-4.08-.86-6.14.05-1.27.19-2.51.47-3.77.14-.61.74-.99,1.35-.85.47.11.8.5.87.95.67,3.2,1.22,6.43,3.53,8.66,2.66,2.9,6.69,6.01,10.54,4.21,1.4-.85,2.46-2.28,3.54-3.79,3.2-4.21,4.98-9.3,5.94-14.51.15-.75.26-1.59.36-2.39-1.65-3.36-1.34-7.61-1.44-10.78-.01-1.53,2.2-1.76,2.52-.28.29,1.38.62,2.75,1.04,4.03.45,1.26.9,2.47,1.66,3.31.74.57,1.38,1.4,2.02,1.82.25.14.3.12.35.1,1.77-.65,3.16-3.16,3.79-5.41,1.7-7.98,1.81-16.33,2.44-24.53,0,0,.49-8.41.49-8.41.15-2.54.11-5.06,1.31-7.61-2.12-1.68-3.86-3.82-4.74-6.07-.22-.5.46-.94.83-.56,2.68,2.5,5.91,4.1,9.11,4.81,1.24.25,2.99.46,3.98-.05,1.03-.66,1.3-1.94,1.34-3.19.22-2.7-.66-4.72-2.13-7.24-1.7-2.97-3.86-6.07-5.9-9.16Z" style="fill:none;"/><path id="DEDICATED_TO_LAMADAEMON_iiiIIiIIIIi" d="m750.85,529.35c-.03-.06-.03.06,0,0h0Z" style="fill:#2c6cb5;"/><g id="DEDICATED_TO_LAMADAEMON_IiIIiiIIiII"><path id="DEDICATED_TO_LAMADAEMON_IiiiIiiIiII" d="m469.58,161.5s-.01-.01-.02-.02c0,0,0,0,0,.01,0,0,.03.02.01,0Z" style="fill:none;"/><path id="DEDICATED_TO_LAMADAEMON_IIIIIIIiiiI" d="m497.89,349.67c.21.07.25.02.14,0-.03-.02-.13-.02-.2-.02.02,0,.04.03.07.03Z" style="fill:none;"/><path id="DEDICATED_TO_LAMADAEMON_IiiiiIIIiii" d="m178.06,614.98c-.47.32-.31.34-.21.26.1-.06.24-.2.38-.36-.07.03-.13.07-.17.11Z" style="fill:none;"/><path id="DEDICATED_TO_LAMADAEMON_iiIIIiiIIIi" d="m213.55,685.13c-.12.06-.26.18-.39.32.42.02.82-.07.89-.29.04-.1-.11-.24-.5-.03Z" style="fill:none;"/><path id="DEDICATED_TO_LAMADAEMON_IIiiIiIIIII" d="m767.53,558.89c-3.93-6.18-8.55-11.17-14.3-15.53-5.62-4.43-11.99-7.72-18.6-11.15-1.12-.54-.6-2.36.66-2.18,4.89.64,9.65,2.1,14.16,4.2.31-.54.63-1.08.88-1.62.45-1.03.99-2.16.63-2.71-.01-.02-.01.03-.02-.04l-.03-.27c-.03-.15-.05-.21-.07-.24,0,0,0,0,0,0,.05-.52-.38-1.46-.86-2-1.63-1.71-3.89-2.86-6.07-4.04-4.59-2.35-9.11-4.72-13.8-6.6-6.84-2.37-14.47-3.79-21.73-4.36-1.49.55-3,.97-4.52,1.32-1.1.26-1.71-1.27-.76-1.85,2.72-1.93,10.52-6.23,8.85-9.72-1.3-2.91-4.59-3.42-7.58-3.75-4.35-.31-9.19-.26-13.56.9-9.31,2.59-18.22,6.75-26.77,11.33,3.52,4.71,6.74,9.63,9.58,14.78,8.86,15.75,13.95,33.42,16.23,51.27,4.44,27.19,2.1,54.02-10.22,78.44.34.8.54,1.73.84,2.47.35.89.82,1.57,1.45,1.94,2.35,1.69,5.28,2.54,7.96,2.62,1.5.04,2.51.1,3.66-.16,3.02-1.26,5.12-4.05,7.52-6.68.37-.42.78-.69,1.21-.86.03-.07.05-.15.09-.22.17-.37.66-.48.97-.22.09.07.18.16.27.23,1.56.14,2.95,1.48,2.91,3.15.54.57,1.12,1.09,1.81,1.45,1.36.48,2.89.46,4.31.46,1.82-.14,2.81-1.06,4.3-2.7,2.97-3.5,5.36-7.1,8.19-10.83-.66-1.99-.98-4.08-.86-6.14.05-1.27.19-2.51.47-3.77.14-.61.74-.99,1.35-.85.47.11.8.5.87.95.67,3.2,1.22,6.43,3.53,8.66,2.66,2.9,6.69,6.01,10.54,4.21,1.4-.85,2.46-2.28,3.54-3.79,3.2-4.21,4.98-9.3,5.94-14.51.15-.75.26-1.59.36-2.39-1.65-3.36-1.34-7.61-1.44-10.78-.01-1.53,2.2-1.76,2.52-.28.29,1.38.62,2.75,1.04,4.03.45,1.26.9,2.47,1.66,3.31.74.57,1.38,1.4,2.02,1.82.25.14.3.12.35.1,1.77-.65,3.16-3.16,3.79-5.41,1.7-7.98,1.81-16.33,2.44-24.53,0,0,.49-8.41.49-8.41.15-2.54.11-5.06,1.31-7.61-2.12-1.68-3.86-3.82-4.74-6.07-.22-.5.46-.94.83-.56,2.68,2.5,5.91,4.1,9.11,4.81,1.24.25,2.99.46,3.98-.05,1.03-.66,1.3-1.94,1.34-3.19.22-2.7-.66-4.72-2.13-7.24-1.7-2.97-3.86-6.07-5.9-9.16Z" style="fill:none;"/><path id="DEDICATED_TO_LAMADAEMON_IIIiIIIiiii" d="m680.42,578.01c-2.09-16.76-6.74-33.31-15-48.09-9.61-17.49-23.48-31.85-38.98-44.38-16.35-14.26-36.7-22.71-57.97-27.09-7.41-1.56-14.95-2.62-22.54-3.36-7.68-.92-15.34-.53-22.95-2.41-.38-.09-.71-.25-1-.43-.24.24-.47.48-.69.69-2.12,2.05-4.36,3.89-6.64,5.67-.51.4-1.25.31-1.64-.21-.39-.5-.31-1.21.17-1.62,1.68-1.46,4.91-4.23,7.24-7.05-.19-1.58.62-3.28,2.39-3.81.36-.98.44-1.89.08-2.66-1.12-.34-2.69-.4-4.19-.44-1.07-.02-2.17,0-3.27,0-.18.28-.39.55-.64.8-.87.85-2,1.27-3.13,1.27s-2.35-.46-3.23-1.37c-5.52-5.7-16.07-52.96-18.67-78.31-1.58-.14-3.12-.75-4.46-1.96-.28-.26-.33-.67-.15-.99,1.09-1.98,2.16-3.24,3.72-4.41.54-.43,1.11-.76,1.69-1.05.74-.78,1.74-1.3,2.89-1.39.75-.42,1.44-.93,1.99-1.68.6-.83,1.12-2.31,1.45-3.39.07-.22.12-.45.16-.66-3.75.64-7.27,2-11.6,2.04-.45.03-.74-.54-.45-.89,2.11-2.74,4.72-4.64,7.75-6.15.16-.73.57-1.44,1.32-2.06,8.69-6.82,16.71-31.52,17.56-42.64.11-2.09.21-4.27-.6-6.04-.22-.44-.41-.6-.83-.79-4.48-2.09-9.04,1.4-12.59,4.47-.55.62-1.09,1.25-1.66,1.85-.26.28-.59.38-.91.37-.03.03-.07.06-.1.08-.22.16-.55.05-.63-.21l-.06-.19c-.33-.28-.52-.7-.41-1.18v-.03s-.04,0-.02-.02l.05-.06s0-.08.03-.12c1.85-4.39,4.08-8.52,6.06-12.78,1.55-3.23,2.93-6.54,3.17-10.06.51-3.79.86-7.65.98-11.46.21-4.43.06-9.45-.03-13.93-.06-4.05.1-9.43-.94-13.05-.34-1.29-.87-2.52-1.48-3.7-.21-.41-.38-.81-.53-1.21-2.56,3.47-5.61,6.55-9.1,8.91-.9.61-2.12.37-2.72-.52-.47-.7-.44-1.59.02-2.24,2.3-3.38,4.33-6.74,5.91-10.28,2.44-5.17,3.93-11.58,5.55-17.07,1.11-3.19,1.58-8.06,1.95-11.41.05-.51.24-1.86.29-2.35.68-4.64-.63-9.73-4.1-12.63,0,0-.51-.41-.51-.41-.05-.05-.07-.06-.01-.07,0,0,.17.02.11,0-9.91-2.24-20.02-1.77-30.22-.1-2.14.34-3.23-1.94-2.4-3.43.02-.62.16-1.26.29-1.86,1.63-4.16,3.64-8.53,3.64-13.05.02-1.2.16-2.59-.12-3.61-.05-.17-.1-.28-.13-.32-.02-.01-.04-.03-.06-.04-5.09-3.19-15.43-.06-21.44,1.81-5.22,1.71-10.29,3.9-15.31,6.19-1.18.53-2.57.01-3.1-1.17-.47-1.04-.12-2.25.79-2.89,2.12-1.48,4.32-2.84,6.56-4.16-.25-1.17.01-2.44.85-3.42,3.95-4.65,13.08-17.27,12.5-33.88-.28-8.11-2.22-14.22-5.25-21.44-5.68-13.53-13.51-22.91-18.19-28.51-3.46-4.14-5.66-6.3-7.99-8.59-2.38-2.34-5.09-4.99-9.36-9.98-4.55-5.3-8.83-10.87-12.79-16.59-6.56,11.15-14.13,21.63-20.83,32.6-4.08,6.83-6.81,14.29-8.71,21.99-2.41,10.31-3.75,21.06-2,31.56,1.68,10.66,6.31,20.31,11.63,29.76.85,1.43-1.05,3.04-2.32,1.9-8.48-7.51-13.78-17.67-16.38-28.6-.2-.1-.4-.23-.57-.4-4.54-4.44-9.66-8.48-15.03-12.19-9.13-6.18-18.59-13.3-29.67-15.32-1.94-.15-4.04-.28-5.32.84-1.65,2.49-.93,5.65-.28,8.62.16,1.34,1.21,4.18.67,5.88,1.07.7,2.07,1.52,2.89,2.65.6.79-.07,2-1.05,1.92-2.81-.13-4.92-1.47-7.26-2.37-2.29-.98-4.58-1.93-6.88-2.75-7.02-2.34-14.57-2.78-21.91-3.31-1.62,0-5.1-.48-6.49.15-1.68.7-2.87,2.34-3.41,4.09-.65,1.68-.92,3.71-2.11,5.14,3.65,1.85,6.49,4.6,9.69,6.97.58.35.3,1.31-.39,1.27-7.39-.58-14.39-5.48-21.85-4.9-6.45.07-12.63,1.9-18.65,4.11-4.54,1.42-8.49,3.47-12.65,6.24-1.43.88-2.22,1.53-3.01,2.63-1.09,1.74-.19,2.76,1.02,4.86.8,1.3,1.88,2.14,3.16,3.08,2.87,2.01,6.24,3.98,9.53,6.61,1.49,1.78-5.84,1.33-6.59,1.24-2.59-.2-5.35-.96-7.86-2.18-.27.28-.57.55-.96.77-3.49,2.39-8.36,6.11-12.61,7.95-4.89,2.41-10.4,4.51-14.66,7.73,1.19.47,2.68.66,3.91.9,4.63.65,9.66.83,14.48.81,1-.04,1.84.76,1.84,1.76,0,.52-.22.98-.58,1.3-.14.32-.35.6-.63.81-5.15,4.02-10.95,6.92-16.02,11.05-10.04,7.94-18.86,17.83-24.7,29.21-2.9,5.63-4.98,11.63-5.85,17.76-.02.11-.05.22-.08.33.05,1.01-.37,2.05-1.47,2.8-7.52,4.77-14.65,9.95-20.78,16.37-6.11,6.31-10.97,13.63-14.9,21.36-1.52,2.88-2.93,5.85-3.79,9.01-1.6,5.2-2.2,10.68-2.66,16.05-.86,8.67-.62,17.31.76,25.95,2.75,17.14,10,33.98,21.72,46.98,8.99,9.73,19.73,18.7,30.52,26.84,3.63,2.79,7.35,5.54,10.72,8.8.2.19.2.51.01.71-.17.18-.44.2-.64.07-1.95-1.17-3.96-2.27-5.97-3.37-3.59-1.97-7.12-3.97-10.58-6.1-.24,2.17-.9,4.17-1.58,6.08-1.98,5.29-4.26,10.23-6.26,15.44-3.11,7.67-3.55,16.1-3.81,24.28-.06,4.27.18,8.54.71,12.76,1.9-8.15,4.66-16.11,7.82-23.74.74-1.68,3.32-.91,2.97.92-2.86,15.14-5.27,30.74-2.45,45.95.22,1.17.54,3.06.83,4.2,1.34,5.34,4.37,10.58,6.01,15.9,2.83-5.18,5.81-10.23,9.1-15.12.87-1.28,2.97-.38,2.53,1.17-1.57,5.64-3.31,11.17-4.83,16.72-1.48,5.53-3.72,10.84-3.94,16.46-.37,2.27-1,4.41-1.25,6.65-.32,2.97-.44,6.06-.64,9.27-.35,9.68-2.35,23.91.17,33.3.31,1.13.58,2.64,1.14,3.56.21.33.48.59.77.82,4.28-7.08,7.9-14.94,11.75-22.37,1.36-2.61,2.73-5.25,4.42-7.75.16-.23.48-.3.71-.14.17.12.25.32.22.51-.86,5.78-1.54,11.58-2.63,17.4-.56,2.65-1.06,5.38-1.74,8.05.5.36.89.73,1.12,1.25.08.44.07.86.11,1.28.29,5.62-.52,11.18-.83,16.77-.67,6.19-.64,12.64-.54,18.93.04,1.61.06,3.35.16,5.06,1.05-1.83,2.02-3.75,3.04-5.68.75-1.46,1.49-2.95,2.22-4.44.74-1.49,1.28-3.04,2.94-4.25.33-.25.83-.09.95.3.65,1.95.17,3.55-.14,5.21-.33,1.65-.67,3.3-1.04,4.96-.33,1.33-.65,2.67-.99,4,.06.02.11.03.17.05.78.31,1.28,1.04,1.32,1.83.35,5.1-.24,9.98-.09,14.93.1,12.33,2.52,24.53,7.78,35.7,3.56,8.07,6.87,17.16,14.44,21.96.14.1.35.24.51.32.06.04.13.07.21.1,0-1.79.1-3.78.11-5.6.09-7.55-.03-15.53,1.21-23.1.06-.5.8-.59.99-.13,2.23,4.84,3.88,9.73,5.32,14.73.81,3.29,1.81,6.6,2.22,9.98,1.69.02,2.78.03,3.64,1.04,1.08,1.98,2.32,3.9,3.7,5.67,2.3,3.02,5.13,5.68,8.04,8.15,4.09,3.96,8.82,6.63,13.81,9.66,1.91,1.07,3.8,2.44,5.7,3.64-.02-.45-.03-.92-.05-1.28-.43-6.35-1.59-13.13-1.67-20.03-.03-1.06,1.5-1.4,1.91-.42,2.16,4.63,4.21,9.28,5.92,14.12.74,2.44,1.86,4.94,2.07,7.51.63-.04,1.3.18,1.89.8,3.6,3.94,7.78,7.54,11.94,10.81.63.51,1.29.99,1.97,1.45-2.25-3.17-3.45-6.52-.31-7.91,1.26-.47,2.57-.04,3.4.9,2.27,2.3,5.06,4.34,8.08,6.27,9.41,6.08,19.63,10.85,30.16,15.12,28.1,12.44,59.15,15.26,89.51,17.54,38.23,2.95,76.9,2.79,114.57-4.78,22.35-5.01,43.84-13.35,64.46-23.35,13.42-6.71,25.87-15.85,37.49-25.44,5.87-4.88,11.59-9.97,17.13-15.25,10.74-10.25,19.18-23.16,25.95-36.35,10.99-21.86,12.58-47.02,8.72-71.07Z" style="fill:none;"/><g id="DEDICATED_TO_LAMADAEMON_iiIIiIIiiII"><path id="DEDICATED_TO_LAMADAEMON_IIiiIIiIiIi" d="m213.55,685.13c-.12.06-.26.18-.39.32.42.02.82-.07.89-.29.04-.1-.11-.24-.5-.03Z" style="fill:none;"/><path id="DEDICATED_TO_LAMADAEMON_iiiIiIiiiII" d="m177.84,615.23c.1-.06.24-.2.38-.36-.07.03-.13.07-.17.11-.47.32-.31.34-.21.26Z" style="fill:none;"/><path id="DEDICATED_TO_LAMADAEMON_IiIIiiiIIIi" d="m180.25,108.26c-5.5-2.67-11.51-3.94-17.21-6.05-9.65-3.99-19.64-7.71-27.68-14.52-1.06-1-2.57-2.05-3.54-3.12-6.49,15.54-8.49,32.93-6.89,49.58,1.69,15.52,7.77,30.69,17.68,42.81,3.45,4.23,7.77,7.62,12.27,10.66,2.27,1.55,4.74,2.79,7.31,3.83,2.07,1.02,4.31,1.55,6.11,2.97,6.11-7.11,13.37-13.3,21.02-18.43,1.21-.79,2.44-1.56,3.69-2.29-2.59.08-5.2,0-7.83-.43-1.82-.39-3.25-.68-4.93-2.13-3.96-3.93.15-8.6,3.39-10.84,3.3-2.42,6.52-4.19,9.91-6.17,4.15-2.13,8.53-4.71,12.35-7.36.53-.34,1.08-.7,1.67-1.05-2.06-2.7-3.07-6.05-2.22-9.92.99-4.23,4.89-7.24,8.55-8.61.5-.21,1.01-.42,1.52-.65-10.48-5.51-25.82-13.42-35.18-18.3Z" style="fill:none;"/><path id="DEDICATED_TO_LAMADAEMON_IiIiiiIIiIi" d="m497.82,349.64s.04.03.07.03c.21.07.25.02.14,0-.03-.02-.13-.02-.2-.02Z" style="fill:none;"/><path id="DEDICATED_TO_LAMADAEMON_IiiIiIIiIii" d="m469.57,161.5s.03.02.01,0c0,0-.01-.01-.02-.02,0,0,0,0,0,.01Z" style="fill:none;"/><g id="DEDICATED_TO_LAMADAEMON_IiiIiIIiIII"><path id="DEDICATED_TO_LAMADAEMON_iiiiiiiIiIi" d="m185.18,173.28c-1.82-.39-3.25-.68-4.93-2.13-3.96-3.93.15-8.6,3.39-10.84,1.63-1.2,3.25-2.24,4.87-3.22-5.11-4.31-11.11-8.61-16.76-12.25-4.13-2.75-9.08-4.11-13.35-6.67-2.92-1.64-5.77-3.39-8.57-5.22-.43,6,.29,11.77,2.69,17.07,1.03,2.7,1.87,5.25,3.37,7.65.62,1.08,2.23,3.87,2.83,4.92,5.29,7.67,12.45,13.85,18.94,20.56.35.37.59.75.79,1.14,3.47-3,7.12-5.77,10.86-8.28,1.21-.79,2.44-1.56,3.69-2.29-2.59.08-5.2,0-7.83-.43Z" style="fill:none;"/><path id="DEDICATED_TO_LAMADAEMON_IiIiIIIiiii" d="m163.04,102.22c-9.65-3.99-19.64-7.71-27.68-14.52-1.06-1-2.57-2.05-3.54-3.12-6.49,15.54-8.49,32.93-6.89,49.58,1.69,15.52,7.77,30.69,17.68,42.81,3.45,4.23,7.77,7.62,12.27,10.66,2.27,1.55,4.74,2.79,7.31,3.83,2.07,1.02,4.31,1.55,6.11,2.97,1.41-1.63,2.88-3.21,4.39-4.75-.3-.18-.6-.39-.88-.66-5.54-5.59-10.96-11.38-15.63-17.82-1.6-2.15-3.12-4.71-4.1-7.25-.93-2.24-2.41-5.27-3-7.61-.57-1.98-.85-3.82-1.39-5.7-1.63-5.97-1.28-12.39.17-18.11.07-.28.23-.47.42-.59-3.09-2.09-6.1-4.29-9-6.64-.44-.34,0-1.1.52-.86,8.15,3.6,16.28,6.85,24.47,10.23,3.42,1.84,6.81,3.65,10.23,5.6,6.65,4.25,12.84,8.5,19.02,13.44.11.1.19.2.28.3,4.07-2.11,8.36-4.63,12.1-7.22.53-.34,1.08-.7,1.67-1.05-2.06-2.7-3.07-6.05-2.22-9.92.99-4.23,4.89-7.24,8.55-8.61.5-.21,1.01-.42,1.52-.65-10.48-5.51-25.82-13.42-35.18-18.3-5.5-2.67-11.51-3.94-17.21-6.05Z" style="fill:none;"/><path id="DEDICATED_TO_LAMADAEMON_iiIIIIIiiiI" d="m177.84,615.23c.1-.06.24-.2.38-.36-.07.03-.13.07-.17.11-.47.32-.31.34-.21.26Z" style="fill:none;"/><path id="DEDICATED_TO_LAMADAEMON_IiiiiIiIiIi" d="m213.55,685.13c-.12.06-.26.18-.39.32.42.02.82-.07.89-.29.04-.1-.11-.24-.5-.03Z" style="fill:none;"/><path id="DEDICATED_TO_LAMADAEMON_iiIiiIiIIii" d="m469.57,161.5s.03.02.01,0c0,0-.01-.01-.02-.02,0,0,0,0,0,.01Z" style="fill:none;"/><path id="DEDICATED_TO_LAMADAEMON_IIIIIIIIiiI" d="m497.82,349.64s.04.03.07.03c.21.07.25.02.14,0-.03-.02-.13-.02-.2-.02Z" style="fill:none;"/><path id="DEDICATED_TO_LAMADAEMON_IIIiiiIIIII" d="m773.21,555.01c-4.53-7.03-10.81-13.19-18.06-17.69,2.51-1.72,4.33-4.38,4.52-7.67.49-3.43-2.11-6.37-4.77-7.94-4.78-3.43-9.42-6.14-14.59-8.88-4.99-2.58-11.12-3.84-16.67-4.07-2.92-.14-5.84-.21-8.76-.05,4.48-3.89,3.73-10.23-.95-14.07-5.61-4.03-12.83-4.1-19.28-4.11-7.56.41-13.94,2.83-20.73,5.38-5.38,2.15-10.6,4.63-15.67,7.43-7.77-9.14-16.61-17.39-25.88-24.83-5.34-4.53-11.13-8.78-17.19-12.27-20.91-12.24-44.62-17.82-68.39-20.05-6.78-.5-13.58-1.39-20.36-.77.4-1.69.15-3.41-1.27-4.97-1.91-1.39-4.23-1.4-6.19-1.71-1.12-.13-2.23-.24-3.33-.35-.18-.35-.38-.68-.65-.98-3.32-4.84-14.52-50.39-16.56-75.94,1.37-1.27,2.64-2.68,3.57-4.32,1.62-3.75,3.82-9.08.33-12.6-.02-.02-.04-.03-.06-.05,1.27-1.58,2.35-3.25,3.29-4.93,5.58-9.94,14.78-37.58,9.28-47.88-2.24-3.44-6.68-3.82-10.4-2.59,2.16-3.09,4.1-6.44,5.1-10.19,1.74-7.96,2.48-16.21,2.43-24.35-.27-7.53.69-16.75-3.22-23.75,0,0-.62-1.09-.62-1.09-.89-1.52-1.07-3.54-2.57-4.99-.04-.04-.09-.08-.14-.12.31-.66.62-1.33.9-2,.82-1.98,2.67-6.82,3.48-8.86,1.71-4,2.47-8.87,3-13.06.07-.5.27-1.82.34-2.3,1.27-8.07-1.34-17.54-8.84-22.19-1.39-.85-3.26-1.62-5-1.67-8.12-.39-16.36.53-24.21,2.45.43-.78.83-1.57,1.19-2.39,1.21-2.84,1.97-6.01,2.04-9.15.17-1.55.3-3.57-.28-5.85-1-4.64-5.77-7.16-10.05-7.67-6.47-.55-12.57.88-18.36,3.15,4.48-7.35,9.17-18.27,8.71-31.42-.32-9.3-2.58-16.43-5.87-24.26-6.15-14.64-14.46-24.6-19.43-30.54-3.71-4.44-6.05-6.74-8.53-9.17-2.38-2.34-4.84-4.75-8.9-9.47-5.45-6.35-10.52-13.08-15.06-20.02-1.21-1.85-3.69-2.36-5.54-1.15-.68.45-1.18,1.07-1.48,1.76-.6.24-1.16.61-1.59,1.16-7.01,8.79-13.47,17.93-19.55,27.43-8.3,12.04-13.67,26.07-15.37,40.61-.97,6.53-1.1,13.36-.3,20.07-5.76-5.71-12.41-10.47-19.14-14.97-7.38-4.6-15.45-7.74-23.96-9.59-2.86-.55-6.43-1.1-9.27.87-2.77,2.04-3.76,6.19-3.36,9.28.33,2.68,1.14,4.99,1.99,7.06-4.22-2.08-8.8-3.74-13.43-4.58-6.39-1.25-12.83-2.27-19.36-2.47-6.85-.41-15.57,5.46-15.67,12.77-8.8-2.02-18.39-.68-26.7,2.58-1.95.73-3.89,1.6-5.81,2.49-.23-.32-.53-.63-.93-.88-3.5-2.16-7.02-4.29-10.6-6.31-2.65-1.54-8.13-4.55-10.84-5.96-3.69-1.88-7.31-3.93-11.22-5.38-3.97-1.39-7.82-2.97-11.81-4.35-3.89-1.4-7.87-2.18-11.78-3.52-5.52-1.77-11.58-4.24-17-6.48-3.66-1.53-7.11-3.47-10.41-5.67-1.28-.85-2.5-1.77-3.8-2.65-.24-.16-.51-.29-.88-.33-.28-.03-.65-.02-.98.08-.42-.17-.93-.1-1.25.38-3.08,4.96-5.44,10.23-7.45,15.68-1.97,5.46-3.55,11.1-4.51,16.9-4.76,29.07,8.34,61.12,33.64,76.75,0,0,7.45,4.67,7.45,4.67,1.34.69,3.14,1.9,4.95,2.6-6.7,8.98-11.51,19.23-13.12,30.49-16.09,8.6-30.01,21.98-37.99,38.54-3.65,8.93-7.31,17.96-8.86,27.54-3.72,28.64,6.85,58.89,27.41,79.07,6.57,6.43,14.06,11.57,21.44,16.88-3.55,4.57-4.91,10.18-6.64,15.69-1.79,5.64-2.4,11.7-3.35,17.53-1.87,11.61-2.33,23.36-1.81,35.12.1,2.73,2.64,4.8,5.34,4.34.6-.1,1.16-.32,1.65-.62-1.05,6.97-1.36,14.04-.63,21.11.26,1.91.69,3.67,1.15,5.37,2.05,6.65,4.04,13.02,9.14,17.75.66.63,1.42,1,2.2,1.17-.87,1.94-1.76,3.88-2.73,5.77-2.21,5.74-2.44,12.46-2.53,18.44-.03,5.82-.2,11.82.08,17.64.36,6.15,1.64,12.26,3.3,18.18,1.1,3.28,1.7,7.19,4.1,10.29,1.35,1.67,3.17,2.65,5.7,2.91.56.03,1.25.12,2.34-.18-.75,4.49-.98,9.1-1.01,13.57,0,7.18.42,14.24,2.83,21.17.82,2,1.58,4.09,3.99,5.61,2.47,1.5,5.28.66,6.95-1.06-.19,1.94-.29,3.89-.39,5.83-.38,13.18,2.13,26.53,7.17,38.72,3.67,9.42,8.56,18.92,16.98,25.01,3.93,3.49,11.35,4.18,14.13-.81,2.19,4.15,5.21,7.88,8.78,10.87,2.71,2.28,5.48,4.59,8.46,6.42,2.66,1.67,6.22,3.53,8.88,5.12,3.1,1.81,5.99,3.3,9.47,4.65,1.01.38,2.2.78,3.38.8,1.63.09,3.35-.81,4.06-2.34.22-.43.33-.89.41-1.36,1.55,1.59,2.96,3.31,4.31,5.1,3.68,4.68,6.64,10.15,11.39,14.02,2.11,1.93,4.79,4.18,7.89,4.59,3.38.47,5.54-1.82,5.93-4.37,7.81,4.76,16.38,8.2,24.65,11.76,21.84,9.66,45.45,13.92,69.02,16.33,23.4,2.23,46.66,4.08,70.24,3.94,23.63-.34,47.3-1.92,70.46-6.7,23.15-5.15,45.41-13.72,66.68-24.01,7.3-3.59,14.06-7.81,20.61-12.3,13.03-8.98,25.1-19.19,36.51-30.1,8.51-8.15,15.43-17.56,21.44-27.56,1.66-.19,3.74-1.05,5.25-.32,3.09,1.13,5.8,2.54,8.92,4.06,5.85,2.51,11.15-.73,14.85-5.23,3.42,5.73,11.59,7.47,16.87,3.42,2.59-1.85,3.91-3.93,5.21-6.22,1.55-2.68,2.82-5.56,3.81-8.5,2.75,3.02,6.51,5.04,10.79,5.04,4.94.21,9.52-4.3,11.47-7.72,3.48-5.11,5.34-11.26,5.37-17.41,1.38.14,2.8-.15,4.08-.98,4.52-2.69,6.44-8.11,7.15-13.02.74-4.28,1.14-8.59,1.47-12.88.45-4.97.63-11.95.83-17.01.05-1.72.15-3.42-.06-5.09,4.69,1.64,9.6.69,11.54-5.32,2.82-8.72-4.02-16.24-8.35-22.8Zm-595.36,60.22c-.1.08-.25.07.21-.26.04-.04.1-.07.17-.11-.15.16-.29.3-.38.36Zm35.31,70.22c.13-.14.27-.27.39-.32.39-.21.54-.07.5.03-.06.22-.47.31-.89.29ZM469.57,161.5s0,0,0-.01c0,0,.01.01.02.02.02.01-.01,0-.01,0Zm28.32,188.17s-.04-.02-.07-.03c.07,0,.17,0,.2.02.12.03.07.08-.14,0Z" style="fill:#2c6cb5;"/><g id="DEDICATED_TO_LAMADAEMON_IIIiIIiIIiI"><path d="m185.18,173.29c2.63.43,5.24.51,7.83.43-1.25.73-2.48,1.5-3.69,2.29-3.74,2.5-7.39,5.27-10.86,8.27-.19-.38-.44-.77-.79-1.13-6.49-6.71-13.66-12.89-18.94-20.56-.6-1.05-2.21-3.84-2.83-4.92-1.5-2.4-2.34-4.95-3.37-7.65-2.41-5.29-3.12-11.06-2.69-17.07,2.8,1.84,5.65,3.59,8.57,5.22,4.27,2.57,9.22,3.92,13.35,6.67,5.65,3.64,11.65,7.94,16.76,12.25-1.63.99-3.24,2.03-4.87,3.23-3.24,2.23-7.35,6.9-3.39,10.83,1.67,1.46,3.11,1.74,4.92,2.14Z" style="fill:#f7a49e;"/></g><g id="DEDICATED_TO_LAMADAEMON_IIIIiIiIIIi"><path d="m215.44,126.56c-.51.23-1.02.45-1.52.65-3.67,1.37-7.57,4.38-8.56,8.61-.85,3.86.17,7.22,2.22,9.92-.59.35-1.14.71-1.67,1.05-3.74,2.59-8.03,5.11-12.1,7.22-.09-.1-.17-.21-.28-.3-6.18-4.94-12.37-9.19-19.02-13.44-3.42-1.95-6.81-3.76-10.23-5.6-8.19-3.38-16.32-6.63-24.47-10.23-.52-.24-.96.52-.52.86,2.9,2.35,5.91,4.56,9,6.64-.2.12-.35.31-.42.59-1.46,5.72-1.8,12.14-.17,18.12.54,1.88.81,3.71,1.39,5.7.59,2.33,2.06,5.36,3,7.6.97,2.55,2.5,5.1,4.09,7.25,4.67,6.45,10.09,12.23,15.63,17.82.29.27.59.49.89.66-1.52,1.54-2.99,3.12-4.4,4.75-1.8-1.42-4.04-1.95-6.11-2.97-2.56-1.03-5.04-2.27-7.3-3.82-4.51-3.05-8.82-6.44-12.27-10.66-9.91-12.12-16-27.29-17.68-42.82-1.6-16.66.39-34.05,6.89-49.58.96,1.07,2.48,2.13,3.53,3.12,8.05,6.81,18.03,10.53,27.68,14.52,5.7,2.11,11.71,3.38,17.21,6.05,9.36,4.87,24.71,12.78,35.19,18.29Z" style="fill:#fdf2ee;"/></g></g></g><g id="DEDICATED_TO_LAMADAEMON_IIiIiiIIiIi"><path d="m773.43,568.05c1.47,2.52,2.35,4.54,2.13,7.24-.03,1.24-.31,2.53-1.34,3.19-.99.51-2.74.29-3.98.04-3.19-.71-6.42-2.31-9.11-4.81-.37-.37-1.04.07-.82.57.88,2.24,2.61,4.38,4.74,6.07-1.2,2.55-1.17,5.06-1.31,7.6l-.5,8.42c-.63,8.2-.74,16.54-2.44,24.53-.64,2.25-2.02,4.76-3.79,5.41-.06.02-.11.04-.36-.1-.64-.42-1.27-1.24-2.02-1.81-.75-.84-1.21-2.06-1.66-3.31-.42-1.28-.75-2.65-1.04-4.03-.32-1.48-2.53-1.25-2.52.28.1,3.16-.21,7.41,1.44,10.78-.1.8-.22,1.64-.36,2.39-.97,5.2-2.74,10.3-5.95,14.51-1.08,1.5-2.14,2.94-3.53,3.78-3.86,1.8-7.88-1.31-10.54-4.21-2.3-2.23-2.86-5.46-3.53-8.66-.06-.45-.39-.84-.87-.94-.6-.14-1.21.24-1.35.84-.28,1.26-.42,2.5-.47,3.77-.12,2.06.2,4.15.86,6.14-2.82,3.72-5.21,7.33-8.18,10.83-1.49,1.64-2.49,2.56-4.3,2.69-1.42.01-2.96.03-4.32-.45-.69-.37-1.27-.88-1.81-1.46.04-1.66-1.35-3.01-2.91-3.14-.09-.08-.17-.16-.27-.23-.3-.26-.79-.15-.96.21-.03.07-.06.15-.09.22-.43.17-.84.44-1.21.86-2.4,2.63-4.5,5.42-7.52,6.68-1.16.27-2.16.2-3.66.16-2.69-.08-5.62-.93-7.97-2.62-.63-.37-1.1-1.05-1.45-1.94-.3-.74-.51-1.67-.84-2.47,12.32-24.42,14.67-51.25,10.22-78.44-2.28-17.86-7.37-35.52-16.23-51.27-2.84-5.16-6.07-10.07-9.58-14.78,8.55-4.58,17.46-8.74,26.77-11.33,4.37-1.16,9.21-1.21,13.56-.9,3,.33,6.29.83,7.59,3.75,1.67,3.48-6.13,7.78-8.85,9.71-.95.58-.34,2.11.77,1.85,1.51-.34,3.02-.76,4.51-1.31,7.26.57,14.89,1.99,21.73,4.36,4.7,1.87,9.22,4.25,13.81,6.59,2.18,1.18,4.44,2.33,6.07,4.05.48.53.91,1.47.86,1.99h0s.03.1.07.25l.02.27c.01.06.01.02.02.03.36.55-.17,1.68-.63,2.71-.25.54-.56,1.08-.88,1.62-4.5-2.1-9.27-3.56-14.15-4.2-1.26-.18-1.78,1.64-.66,2.18,6.6,3.43,12.98,6.72,18.59,11.15,5.75,4.36,10.37,9.35,14.3,15.53,2.04,3.09,4.2,6.19,5.9,9.16Z" style="fill:#fdf2ee;"/></g><g id="DEDICATED_TO_LAMADAEMON_IiIIiIIiiiI"><path d="m680.42,578.01c3.86,24.04,2.26,49.21-8.73,71.07-6.76,13.19-15.2,26.1-25.94,36.35-5.54,5.29-11.26,10.37-17.14,15.25-11.62,9.6-24.07,18.73-37.49,25.45-20.61,10-42.11,18.33-64.45,23.35-37.67,7.57-76.34,7.73-114.57,4.78-30.36-2.28-61.41-5.1-89.51-17.54-10.52-4.27-20.74-9.04-30.15-15.12-3.02-1.93-5.81-3.97-8.09-6.27-.83-.95-2.13-1.38-3.4-.9-3.14,1.38-1.94,4.74.31,7.91-.68-.47-1.34-.95-1.97-1.46-4.16-3.27-8.33-6.87-11.93-10.81-.6-.62-1.27-.84-1.9-.8-.21-2.56-1.32-5.06-2.07-7.5-1.7-4.84-3.76-9.49-5.92-14.12-.41-.98-1.94-.64-1.91.42.08,6.91,1.24,13.69,1.67,20.03.03.37.04.83.06,1.28-1.9-1.19-3.79-2.56-5.7-3.64-4.99-3.03-9.71-5.7-13.81-9.66-2.91-2.47-5.74-5.13-8.03-8.15-1.38-1.77-2.62-3.69-3.7-5.67-.85-1.01-1.94-1.01-3.64-1.04-.41-3.37-1.41-6.69-2.22-9.98-1.44-4.99-3.08-9.88-5.31-14.73-.19-.46-.93-.36-.99.14-1.25,7.57-1.13,15.55-1.22,23.1-.01,1.82-.12,3.8-.11,5.59-.08-.02-.14-.06-.2-.1-.17-.07-.37-.21-.51-.31-7.57-4.8-10.88-13.89-14.44-21.96-5.27-11.16-7.68-23.36-7.79-35.69-.15-4.95.44-9.83.09-14.93-.04-.8-.54-1.53-1.32-1.84-.06-.02-.11-.03-.17-.04.34-1.34.65-2.68.99-4.01.37-1.66.71-3.31,1.04-4.96.31-1.66.79-3.26.14-5.21-.13-.39-.63-.55-.96-.3-1.65,1.21-2.2,2.76-2.94,4.25-.72,1.5-1.46,2.98-2.21,4.44-1.02,1.93-2,3.85-3.05,5.69-.09-1.71-.12-3.45-.16-5.06-.1-6.29-.13-12.74.54-18.93.31-5.59,1.12-11.15.83-16.77-.04-.43-.03-.84-.11-1.29-.23-.51-.62-.88-1.12-1.24.69-2.67,1.19-5.41,1.74-8.05,1.1-5.83,1.77-11.63,2.64-17.41.03-.19-.05-.39-.22-.51-.23-.16-.55-.1-.71.14-1.69,2.49-3.06,5.13-4.42,7.74-3.84,7.44-7.47,15.29-11.74,22.37-.29-.23-.56-.49-.77-.82-.57-.92-.83-2.43-1.14-3.56-2.52-9.39-.52-23.62-.17-33.3.2-3.21.31-6.3.64-9.27.25-2.24.87-4.37,1.24-6.65.22-5.62,2.46-10.93,3.95-16.46,1.52-5.55,3.26-11.08,4.82-16.72.44-1.55-1.65-2.45-2.53-1.17-3.28,4.88-6.26,9.93-9.09,15.12-1.64-5.32-4.67-10.57-6.01-15.9-.3-1.14-.62-3.04-.83-4.2-2.83-15.21-.41-30.81,2.45-45.95.35-1.83-2.23-2.6-2.97-.92-3.17,7.62-5.93,15.59-7.83,23.73-.52-4.22-.77-8.49-.71-12.76.27-8.18.7-16.61,3.81-24.28,2-5.21,4.28-10.15,6.26-15.44.68-1.91,1.33-3.91,1.58-6.08,3.46,2.14,6.99,4.13,10.58,6.11,2.01,1.1,4.02,2.19,5.97,3.37.19.13.46.1.63-.07.19-.2.19-.52-.01-.71-3.37-3.26-7.09-6.01-10.72-8.8-10.79-8.14-21.53-17.11-30.52-26.84-11.72-13-18.97-29.84-21.72-46.98-1.38-8.64-1.62-17.29-.76-25.95.46-5.37,1.06-10.85,2.66-16.05.85-3.16,2.26-6.13,3.79-9.01,3.93-7.73,8.79-15.04,14.9-21.36,6.13-6.42,13.26-11.6,20.78-16.36,1.1-.75,1.52-1.8,1.47-2.8.02-.11.06-.22.08-.33.87-6.13,2.94-12.13,5.84-17.77,5.84-11.37,14.66-21.27,24.71-29.2,5.06-4.13,10.87-7.02,16.01-11.05.28-.21.5-.49.64-.81.35-.32.58-.78.58-1.3,0-1-.85-1.8-1.85-1.76-4.81.02-9.84-.16-14.47-.81-1.23-.23-2.72-.43-3.91-.9,4.25-3.22,9.76-5.32,14.66-7.73,4.25-1.84,9.12-5.56,12.61-7.95.38-.23.69-.49.96-.77,2.51,1.22,5.27,1.98,7.86,2.18.75.09,8.08.54,6.59-1.24-3.29-2.63-6.66-4.61-9.53-6.61-1.27-.94-2.36-1.79-3.16-3.09-1.21-2.09-2.11-3.11-1.02-4.85.79-1.1,1.59-1.75,3.01-2.64,4.17-2.76,8.12-4.81,12.66-6.23,6.02-2.21,12.2-4.04,18.65-4.11,7.45-.58,14.45,4.33,21.85,4.9.68.05.97-.91.39-1.26-3.2-2.37-6.04-5.13-9.69-6.97,1.19-1.44,1.47-3.46,2.12-5.15.53-1.74,1.72-3.38,3.41-4.08,1.39-.63,4.87-.15,6.49-.15,7.34.53,14.89.97,21.91,3.31,2.29.82,4.58,1.77,6.88,2.75,2.34.9,4.45,2.24,7.26,2.37.98.09,1.65-1.13,1.05-1.91-.82-1.14-1.82-1.96-2.89-2.66.55-1.7-.51-4.54-.67-5.88-.65-2.97-1.37-6.13.28-8.62,1.29-1.12,3.38-.99,5.32-.84,11.08,2.02,20.54,9.14,29.67,15.32,5.36,3.71,10.48,7.75,15.02,12.19.17.17.36.3.57.41,2.59,10.92,7.89,21.08,16.37,28.59,1.28,1.14,3.17-.47,2.32-1.9-5.31-9.45-9.94-19.1-11.62-29.76-1.75-10.5-.41-21.25,2-31.56,1.9-7.7,4.63-15.16,8.71-21.99,6.7-10.97,14.28-21.45,20.84-32.6,3.96,5.72,8.24,11.29,12.79,16.59,4.28,4.98,6.98,7.64,9.36,9.97,2.34,2.29,4.54,4.46,8,8.6,4.68,5.6,12.51,14.98,18.19,28.51,3.03,7.22,4.97,13.33,5.25,21.44.58,16.61-8.55,29.23-12.5,33.88-.83.98-1.1,2.25-.85,3.42-2.24,1.32-4.44,2.68-6.56,4.16-.91.63-1.27,1.84-.79,2.88.53,1.18,1.92,1.7,3.1,1.17,5.02-2.29,10.09-4.48,15.31-6.19,6.01-1.86,16.35-4.99,21.44-1.8.02.01.04.03.06.04.03.04.08.15.13.32.27,1.02.13,2.41.11,3.61,0,4.53-2.01,8.89-3.64,13.05-.13.6-.27,1.24-.29,1.86-.84,1.5.25,3.78,2.39,3.44,10.21-1.68,20.32-2.14,30.23.09.06.03-.11.01-.12.01-.05.01-.04.03.02.08l.51.4c3.47,2.9,4.78,7.99,4.1,12.63-.05.5-.24,1.84-.3,2.35-.37,3.35-.83,8.23-1.94,11.42-1.62,5.49-3.11,11.9-5.55,17.07-1.58,3.54-3.61,6.9-5.91,10.28-.46.65-.49,1.54-.02,2.24.61.89,1.82,1.13,2.72.52,3.49-2.37,6.55-5.44,9.1-8.91.15.4.32.8.53,1.21.61,1.19,1.14,2.41,1.48,3.7,1.04,3.62.87,9,.94,13.05.08,4.48.24,9.5.03,13.93-.13,3.81-.48,7.67-.99,11.46-.23,3.52-1.61,6.83-3.16,10.06-1.98,4.26-4.22,8.38-6.07,12.78-.01.04-.01.08-.02.11l-.05.07s0,.01,0,.02v.03c-.1.48.09.9.42,1.18l.07.19c.08.25.41.36.63.21.03-.03.07-.06.1-.09.32.01.65-.09.91-.37.57-.61,1.11-1.23,1.66-1.85,3.55-3.07,8.1-6.56,12.59-4.48.41.2.61.36.83.8.81,1.76.71,3.94.6,6.03-.85,11.12-8.87,35.82-17.56,42.65-.75.61-1.16,1.33-1.32,2.05-3.02,1.52-5.64,3.42-7.75,6.16-.28.35.01.91.46.89,4.33-.04,7.85-1.4,11.6-2.04-.04.21-.09.43-.16.66-.33,1.08-.85,2.56-1.45,3.39-.56.75-1.25,1.26-1.99,1.68-1.15.09-2.16.61-2.9,1.39-.58.29-1.15.63-1.69,1.05-1.55,1.17-2.63,2.44-3.72,4.42-.18.32-.12.73.16.99,1.33,1.2,2.87,1.82,4.45,1.96,2.6,25.34,13.14,72.6,18.67,78.31.88.91,2.06,1.36,3.23,1.36s2.26-.42,3.13-1.26c.25-.25.46-.52.64-.8,1.11-.01,2.2-.02,3.27-.01,1.51.04,3.08.1,4.2.44.36.77.28,1.68-.08,2.66-1.77.53-2.58,2.23-2.39,3.81-2.32,2.81-5.56,5.58-7.23,7.04-.49.4-.57,1.12-.18,1.62.4.51,1.14.6,1.65.2,2.27-1.77,4.51-3.61,6.63-5.66.23-.22.46-.45.7-.7.29.19.62.34,1,.43,7.61,1.89,15.28,1.5,22.96,2.41,7.59.74,15.12,1.81,22.54,3.36,21.26,4.39,41.61,12.83,57.96,27.09,15.49,12.52,29.36,26.89,38.98,44.38,8.26,14.78,12.91,31.32,15,48.09Z" style="fill:#fdf2ee;"/></g></g></g><g id="DEDICATED_TO_LAMADAEMON_IIIIIIIIIiI"><path id="DEDICATED_TO_LAMADAEMON_IiiIIIIIiii" d="m403.71,97.41c-1.24-2.4-2.53-4.74-3.81-7.09-.92,2.61-1.92,5.2-2.91,7.76-1.81,4.69-4.31,9.37-5.74,14.05-2.42,8.09-3.59,16.78-3.17,25.23.32,5.69,1.85,12.52,3.71,18.08.2.57-.13,1.05-.58,1.24h0c2.94.88,5.84,1.47,9.3,1.27,2.19-1.81,2.91-1.33,3.22-1.12.23.15.41.37.59.64.18-.61.37-1.29.52-1.85.99-3.67,1.48-5.29,2.79-5.29,1.5,0,4.16,3.13,5.38,5.95.27-2.73.67-5.82.93-8.21,1.4-10.33,1.02-21.21-1.84-31.12-2.05-6.8-5.25-13.18-8.4-19.55Z" style="fill:none;"/><path id="DEDICATED_TO_LAMADAEMON_iiIIIiIiiii" d="m418.43,115.05c-2.31-7.19-6.07-13.85-9.85-20.34-3.82-6.41-7.86-12.7-13.64-17.58-.45-.42-1.2.13-.97.68.7,1.89,1.49,3.71,2.33,5.49-.73.27-1.39.81-1.84,1.7-1.91,3.86-3.75,8.24-5.42,12.23-1.84,4.22-3.69,8.32-4.82,12.98-3.45,14.96-2.05,32.65,5.75,46.05.01.02.02.03.04.05-.85-.27-1.7-.56-2.58-.86-.52-.18-1.09.1-1.27.62-.18.52.1,1.09.62,1.27,4.67,1.6,8.7,2.97,14.2,2.58l.33-.02.25-.22c.4-.35.88-.7,1.22-.9.11.2.22.44.29.58.33.69.56,1.14,1.13,1.25l.19.02c1.17,0,1.52-1.31,2.38-4.49.3-1.1.76-2.82,1.11-3.61,1.12.84,3.46,3.84,3.76,6.03.07.55.58.93,1.13.86.05,0,.09-.03.14-.05.33.61,1.3.81,1.76.15,8.38-11.26,7.67-31.43,3.76-44.48Z" style="fill:#2c6cb5;"/><g id="DEDICATED_TO_LAMADAEMON_IIIIIIiiIii"><path d="m412.11,116.97c2.86,9.91,3.23,20.79,1.84,31.12-.27,2.39-.67,5.47-.94,8.21-1.22-2.82-3.88-5.95-5.38-5.95-1.3,0-1.8,1.62-2.79,5.28-.15.56-.33,1.25-.51,1.85-.18-.28-.37-.49-.6-.64-.31-.21-1.03-.69-3.22,1.12-3.46.2-6.36-.38-9.3-1.27.36-.15.64-.49.64-.9,0-.11-.02-.22-.06-.34-1.87-5.56-3.39-12.39-3.71-18.08-.42-8.45.75-17.14,3.17-25.23,1.43-4.68,3.93-9.36,5.74-14.05.99-2.56,1.99-5.16,2.91-7.77,1.27,2.36,2.57,4.7,3.81,7.1,3.15,6.36,6.35,12.74,8.4,19.55Z" style="fill:#f7a49e;"/></g></g><g id="DEDICATED_TO_LAMADAEMON_iiIIiiiiIIi"><path d="m628.84,678.05c2.72,5.78,4.37,11.78,5.7,17.83,2.79,12.09,4.67,24.35,6.29,36.64,3.19,24.28,6.98,49.54,6.61,74.05-.02,6.56-.98,12.8-4.42,18.79-.76.92-1.38-.55-1.78-1.08-3.2-5.11-4.87-11.12-5.55-16.99-.79-6.08-1.53-12.16-2.21-18.24-2-18.22-3.33-36.58-5.83-54.76-1.48-10.64-3.68-25.85-4.83-36.42-.73-6.09-1.25-12.21-.81-18.54.13-1.98,1.85-3.48,3.84-3.34,1.34.09,2.46.92,3,2.06h0Z" style="fill:#2c6cb5;"/></g><path id="DEDICATED_TO_LAMADAEMON_iIIiIIIiiIi" d="m644.29,833.21c3.06-6.33-2.97-16.25-9.98-20.22-3.75-2.13-7.44-2.28-10.79-2.43-4.34-.19-11.47-.49-17.8,4.31-8.3,6.3-8.86,16.57-8.9,19.15-.05,3.42-1.17,7.47,1.35,8.09,8.12,2,43.62-3.76,46.11-8.9Z" style="fill:#2d6cb5; stroke:#2c6cb5; stroke-linecap:round; stroke-miterlimit:10;"/><g id="DEDICATED_TO_LAMADAEMON_IiIiiiIiIii"><path d="m548.29,753.79c5.93,24.54,14.09,49.08,20.02,73.62" style="fill:#2d6cb5;"/><path d="m557.72,751.51c3.88,24.67,10.06,49.64,14.13,75.04.32,1.99-1.03,3.86-3.02,4.18-1.79.29-3.49-.79-4.04-2.46-7.9-24.06-17.84-47.43-25.93-72.23-1.67-5.11,1.12-10.6,6.23-12.26,5.62-1.89,11.75,1.88,12.63,7.74h0Z" style="fill:#2c6cb5;"/></g><path id="DEDICATED_TO_LAMADAEMON_IIIiIIiiiIi" d="m559.01,817.3c-2.36-2.03-6.53-5.5-12.94-6.47-1.2-.18-12.13-1.65-20.02,6.47-1.16,1.19-6.37,6.83-6.27,15.37.01,1.23-1.63,11.73,4.04,12.13,8.13.58,40.95-11.01,44.49-12.74,5.62-2.74-6.86-12.67-9.3-14.76Z" style="fill:#2d6cb5; stroke:#2c6cb5; stroke-linecap:round; stroke-miterlimit:10;"/><g id="DEDICATED_TO_LAMADAEMON_iiiIiiiiIii"><path d="m367.89,699.59c-8.56,42.84-20.04,84.84-35.19,125.8" style="fill:#2d6cb5;"/><path d="m371.11,700.23c-1.8,21.94-6.33,43.49-11.64,64.81-5.49,21.29-12.04,42.35-20.42,62.69-3.52,7.88-15.14,3.64-12.72-4.67,9.93-29.88,20.34-62.77,28.93-92.88,2.99-10.42,5.96-20.85,9.4-31.24,1.24-3.64,6.7-2.59,6.45,1.29h0Z" style="fill:#2c6cb5;"/></g><path id="DEDICATED_TO_LAMADAEMON_iiiIiiiIiIi" d="m329.87,815.07c-4.03-4.27-9.39-5.02-13.96-5.66-4.63-.65-16.95-2.38-26.09,6.47-5.4,5.23-14.56,18.89-7.48,22.25,7.13,3.39,41.72,4.18,49.55,1.21,7.32-2.77,4.01-17.87-2.02-24.27Z" style="fill:#2d6cb5; stroke:#2c6cb5; stroke-linecap:round; stroke-miterlimit:10;"/><g id="DEDICATED_TO_LAMADAEMON_IIIIiiiiiii"><path d="m251.88,718.1c-2.84,1.82-3.91,4-4.11,7.07-2.95,30.83-3.58,62.05-3.1,93.03.07,5.17.25,10.42.53,15.35.29,3.57-2.43,6.71-6.01,6.9-3.32.19-6.19-2.22-6.68-5.44-.81-5.43-1.29-10.69-1.77-16.09-1.31-15.91-1.87-31.8-1.91-47.77-.05-16.09,1.06-32.58,3.48-48.57.89-7.46,6.29-14.41,12.94-17.24,8.4-3.56,14.33,7.94,6.64,12.75h0Z" style="fill:#2c6cb5;"/></g><path id="DEDICATED_TO_LAMADAEMON_iiiIIIIiIII" d="m235.48,839.68c6.54-2.23,2.86-15.3-2.16-20.76-5.75-6.25-15.17-5.1-21.57-4.31-5.69.7-13.5,1.65-18.88,8.36-3.47,4.33-10.31,17.61-4.04,17.8,7.12.21,39.8,1.26,46.65-1.08Z" style="fill:#2d6cb5; stroke:#2c6cb5; stroke-linecap:round; stroke-miterlimit:10;"/><path id="DEDICATED_TO_LAMADAEMON_iiIiIIIiIii" d="m188.97,226.6c-1.94.76-5.75,2.29-9.03,6.07-.91,1.05-6.75,7.78-4.58,14.7.72,2.3,2.04,3.72,3.1,4.85,6.73,7.23,17.19,6.18,18.2,6.07,4.76-.55,8.04-2.48,9.03-3.1,4.69-2.93,6.88-6.87,7.82-8.63,1.61-3,3.04-5.64,2.7-8.9-.67-6.45-7.81-10.82-12.94-12.27-6.47-1.83-12.01.33-14.29,1.21Z" style="fill:#2d6cb5; stroke:#2c6cb5; stroke-linecap:round; stroke-miterlimit:10;"/><g id="DEDICATED_TO_LAMADAEMON_IIiiIiiIiIi"><path d="m173.85,265.39c4.75,3.15,9.66,5.35,15.17,5.47,2.83.09,5.34.09,8.12-.4,2.81-.45,5.75-1.03,8.88-1.24.29-.02.55.2.57.49.01.17-.06.32-.17.43-2.36,2.15-5.02,3.72-7.95,4.94-6.11,2.33-13.76,2-19.19-1.69-2.78-1.84-5.03-4.41-6.21-7.39-.2-.46.38-.92.78-.62h0Z" style="fill:#2c6cb5;"/></g><path id="DEDICATED_TO_LAMADAEMON_IiIIIIIiiii" d="m384.34,251c2.28-1.63,5.79-4.14,6.74-8.63.95-4.46-.39-9.12-1.35-10.79-3.11-5.38-9.02-6.56-11.73-7.69-2.27-.94-7.39-2.99-13.75-1.75-2.57.5-6.89,1.34-9.84,4.99-2.67,3.31-4.29,6.97-4.45,11.39-.16,4.42,1.24,7.03,2.56,9.51,4.28,8.06,17.46,7.28,18.82,7.19,2.03-.14,7.97-.62,13-4.22Z" style="fill:#2e6cb5; stroke:#2c6cb5; stroke-linecap:round; stroke-miterlimit:10;"/><g id="DEDICATED_TO_LAMADAEMON_IIiIiIIiiii"><path d="m391.87,258.18c-.49,8.19-7.95,15.64-16.67,15.29-5.55-.23-10.67-2.5-14.49-6.38-.2-.21-.19-.55.02-.75.12-.11.27-.16.42-.14,2.62.22,5.01.61,7.35.86,5.48.65,10.66.71,15.18-2.55.9-.55,1.85-1.19,2.69-1.84.11-.1-.03.05-.06.13l.13-.17c1.6-1.33,3.06-2.93,4.5-4.78.29-.41.98-.16.94.34h0Z" style="fill:#2c6cb5;"/></g><g id="DEDICATED_TO_LAMADAEMON_iiIIIiiiiii"><path d="m254.62,241.02c7.08,7.56,20.69,8.68,26.02-1.39.22-.45.96-.29.98.21.3,11.6-14.1,15.68-22.6,9.54-2.75-1.92-4.73-4.81-5.28-7.9-.1-.49.55-.83.89-.46h0Z" style="fill:#2c6cb5;"/></g><g id="DEDICATED_TO_LAMADAEMON_iIIIIiiiiii"><path id="DEDICATED_TO_LAMADAEMON_iiiIIiiiiiI" d="m290.02,276.61c-.27-.59-.34-1.15-.28-1.65-1.12-.06-2.24-.16-3.32-.32-7.04-.41-14.15-4.17-17.74-10.39-.06-.11-.12-.22-.18-.33-.3,1.81-.87,3.6-1.71,5.23.65.28,1.15.89,1.16,1.84-.35,12.91,4.82,25.31,13.14,35.02,2.08,2.41,4.35,4.64,6.83,6.63,1.37,1.23,3.05,2.01,4.88,2.39,2.11.49,4.45.52,4.99-1.95,1.12-3.94.54-8-.06-12.05-.48-3.07-1.25-6.52-1.93-9.59-.67-3.15-1.49-5.99-2.86-8.92-.86-1.92-1.88-3.77-2.92-5.89Z" style="fill:none;"/><path id="DEDICATED_TO_LAMADAEMON_IIIiIiiIiIi" d="m310.45,258.13c-.66-.27-1.42.04-1.69.7-1.56,3.81-4.02,8.22-8.18,9.43-4.38,1.48-8.6,1.04-13.26.05-5.48-.84-10.07-3.09-13.25-7.54l-1.9-2.69s-1.39-2.01-2.59-3.75c.02-.69,0-1.4-.07-2.14-.1-.83-.73-1.54-1.59-1.69-1.06-.19-2.07.51-2.26,1.57-.5,2.83-.98,6.09-1.29,9.11-.25,4.55-1.54,9.28-5.72,11.64-4.07,2.3-9.31,1.26-12.69-1.65-2.19-1.7-3.29-4.06-5.11-6.2-.69-.85-2.18-.45-2.34.65-.36,2.4.71,4.66,2.01,6.63,4.35,6.37,13.03,5.46,19.37,3.23,1.56-.55,2.9-1.41,4.04-2.48-.02,13.11,5.25,25.98,13.6,36.02,2.61,3.12,5.52,6.01,8.75,8.5,3.93,2.51,9.93,4.31,13.97.96,5.76-5.51,2.83-17.97,1.63-24.95-.42-2-.9-4.63-1.41-6.63-1-4.22-3.04-8.36-4.88-12.15,6.72-.89,12.9-4.13,14.99-11.3.41-1.42.71-2.61.67-4.18-.02-.49-.32-.94-.8-1.14Z" style="fill:#2c6cb5;"/><g id="DEDICATED_TO_LAMADAEMON_IIiiiIIiIIi"><path d="m297.73,301.02c.6,4.05,1.18,8.11.06,12.05-.55,2.47-2.88,2.44-4.99,1.95-1.83-.38-3.51-1.16-4.88-2.39-2.47-2-4.75-4.23-6.83-6.63-8.31-9.7-13.48-22.11-13.14-35.02,0-.95-.51-1.56-1.16-1.84.84-1.63,1.41-3.41,1.72-5.22.06.11.11.22.18.33,3.59,6.22,10.69,9.99,17.73,10.4,1.08.15,2.2.26,3.32.31-.06.51.01,1.07.28,1.66,1.03,2.12,2.05,3.97,2.91,5.89,1.37,2.93,2.2,5.77,2.87,8.92.68,3.07,1.45,6.52,1.93,9.59Z" style="fill:#f7a49e;"/></g></g><g id="DEDICATED_TO_LAMADAEMON_IIiiIIIiii"><path d="m329.68,2.13h1.01v7.61h-1v-1.01c-.48.76-1.11,1.14-1.89,1.14-.63,0-1.17-.25-1.62-.76s-.67-1.11-.67-1.82.23-1.29.69-1.78,1-.75,1.64-.75c.38,0,.73.11,1.06.32.33.21.59.49.79.83v-3.78Zm.12,5.18c0-.43-.16-.81-.48-1.13s-.69-.48-1.13-.48-.84.16-1.15.47c-.32.31-.47.69-.47,1.14s.16.81.48,1.13c.32.32.69.48,1.12.48.45,0,.84-.16,1.16-.47s.48-.69.48-1.14Z" style="fill:#fdfdfd;"/><path d="m337.08,7.51h-4.12c.09.5.29.86.61,1.09s.67.34,1.04.34c.58,0,1.06-.24,1.45-.72l.74.56c-.56.72-1.31,1.08-2.24,1.08-.72,0-1.32-.25-1.8-.74s-.73-1.1-.73-1.83c0-.68.25-1.28.74-1.78s1.09-.75,1.8-.75,1.29.25,1.79.76.74,1.17.73,1.98Zm-4.02-.81h2.95c-.33-.66-.81-1-1.45-1-.7,0-1.2.33-1.5,1Z" style="fill:#fdfdfd;"/><path d="m342.3,2.13h1.01v7.61h-1v-1.01c-.48.76-1.11,1.14-1.89,1.14-.63,0-1.17-.25-1.62-.76s-.67-1.11-.67-1.82.23-1.29.69-1.78,1-.75,1.64-.75c.38,0,.73.11,1.06.32.33.21.59.49.79.83v-3.78Zm.12,5.18c0-.43-.16-.81-.48-1.13s-.69-.48-1.13-.48-.84.16-1.15.47c-.32.31-.47.69-.47,1.14s.16.81.48,1.13c.32.32.69.48,1.12.48.45,0,.84-.16,1.16-.47s.48-.69.48-1.14Z" style="fill:#fdfdfd;"/><path d="m344.68,3.31c0-.21.08-.39.23-.55s.34-.23.56-.23.39.08.55.23.23.34.23.55-.08.4-.23.55-.34.23-.55.23-.4-.08-.56-.23-.23-.34-.23-.55Zm.29,1.59h1.01v4.83h-1.01v-4.83Z" style="fill:#fdfdfd;"/><path d="m351.13,8.25v1.17c-.52.3-1.02.45-1.51.45-.67,0-1.25-.25-1.75-.75s-.75-1.08-.75-1.74c0-.75.25-1.37.75-1.87s1.13-.74,1.88-.74c.45,0,.91.12,1.39.35v1.14c-.51-.33-1-.49-1.45-.49-.42,0-.79.15-1.11.45s-.47.64-.47,1.04c0,.45.15.83.45,1.13s.66.46,1.09.46.94-.2,1.5-.59Z" style="fill:#fdfdfd;"/><path d="m356.19,4.9h1.02v4.83h-1.02v-.96c-.5.73-1.11,1.1-1.85,1.1-.64,0-1.18-.25-1.63-.75s-.68-1.11-.68-1.82c0-.68.23-1.27.68-1.77s.99-.76,1.6-.76c.38,0,.74.1,1.08.31s.6.48.79.81v-.98Zm.14,2.43c0-.44-.16-.82-.48-1.13s-.7-.47-1.14-.47-.81.16-1.13.47c-.32.31-.48.68-.48,1.1,0,.46.16.85.47,1.17.31.32.69.48,1.14.48s.82-.16,1.14-.48.48-.7.48-1.13Z" style="fill:#fdfdfd;"/><path d="m359.07,3.49h1.02v1.41h1.01v.93h-1.01v3.9h-1.02v-3.9h-.8v-.94h.8v-1.39Z" style="fill:#fdfdfd;"/><path d="m366.82,7.51h-4.12c.09.5.29.86.61,1.09s.67.34,1.04.34c.58,0,1.06-.24,1.45-.72l.74.56c-.56.72-1.31,1.08-2.24,1.08-.72,0-1.32-.25-1.8-.74s-.73-1.1-.73-1.83c0-.68.25-1.28.74-1.78s1.09-.75,1.8-.75,1.29.25,1.79.76.74,1.17.73,1.98Zm-4.02-.81h2.95c-.33-.66-.81-1-1.45-1-.7,0-1.2.33-1.5,1Z" style="fill:#fdfdfd;"/><path d="m372.05,2.13h1.01v7.61h-1v-1.01c-.48.76-1.11,1.14-1.89,1.14-.63,0-1.17-.25-1.62-.76s-.67-1.11-.67-1.82.23-1.29.69-1.78,1-.75,1.64-.75c.38,0,.73.11,1.06.32.33.21.59.49.79.83v-3.78Zm.12,5.18c0-.43-.16-.81-.48-1.13s-.69-.48-1.13-.48-.84.16-1.15.47c-.32.31-.47.69-.47,1.14s.16.81.48,1.13c.32.32.69.48,1.12.48.45,0,.84-.16,1.16-.47s.48-.69.48-1.14Z" style="fill:#fdfdfd;"/><path d="m378.25,3.49h1.02v1.41h1.01v.93h-1.01v3.9h-1.02v-3.9h-.8v-.94h.8v-1.39Z" style="fill:#fdfdfd;"/><path d="m380.91,7.29c0-.66.26-1.25.78-1.76s1.12-.77,1.8-.77,1.3.25,1.82.76.78,1.1.78,1.77-.25,1.28-.76,1.8-1.1.78-1.77.78c-.71,0-1.33-.26-1.86-.77s-.79-1.11-.79-1.8Zm4.2,0c0-.41-.16-.77-.47-1.07s-.68-.46-1.11-.46-.82.15-1.14.46-.48.67-.48,1.1.16.76.48,1.07c.32.31.7.46,1.13.46s.79-.16,1.11-.47c.32-.31.47-.68.47-1.09Z" style="fill:#fdfdfd;"/><path d="m390.63,2.13h1.02v7.61h-1.02V2.13Z" style="fill:#fdfdfd;"/><path d="m397.19,4.9h1.02v4.83h-1.02v-.96c-.5.73-1.11,1.1-1.85,1.1-.64,0-1.18-.25-1.63-.75s-.68-1.11-.68-1.82c0-.68.23-1.27.68-1.77s.99-.76,1.6-.76c.38,0,.74.1,1.08.31s.6.48.79.81v-.98Zm.14,2.43c0-.44-.16-.82-.48-1.13s-.7-.47-1.14-.47-.81.16-1.13.47c-.32.31-.48.68-.48,1.1,0,.46.16.85.47,1.17.31.32.69.48,1.14.48s.82-.16,1.14-.48.48-.7.48-1.13Z" style="fill:#fdfdfd;"/><path d="m399.64,9.73v-4.83h1.01v.74c.24-.3.47-.53.68-.67s.47-.21.75-.21c.37,0,.66.08.86.24s.39.42.53.77c.25-.35.5-.61.74-.77s.51-.24.83-.24c.38,0,.72.14.99.43s.42.63.42,1.02v3.52h-1.02v-3.25c0-.54-.26-.8-.79-.8-.3,0-.56.14-.77.41s-.31.61-.31,1.01v2.63h-1.02v-3.12c0-.63-.26-.95-.78-.95-.31,0-.57.13-.79.39s-.32.58-.32.96v2.72h-1.01Z" style="fill:#fdfdfd;"/><path d="m411.81,4.9h1.02v4.83h-1.02v-.96c-.5.73-1.11,1.1-1.85,1.1-.64,0-1.18-.25-1.63-.75s-.68-1.11-.68-1.82c0-.68.23-1.27.68-1.77s.99-.76,1.6-.76c.38,0,.74.1,1.08.31s.6.48.79.81v-.98Zm.14,2.43c0-.44-.16-.82-.48-1.13s-.7-.47-1.14-.47-.81.16-1.13.47c-.32.31-.48.68-.48,1.1,0,.46.16.85.47,1.17.31.32.69.48,1.14.48s.82-.16,1.14-.48.48-.7.48-1.13Z" style="fill:#fdfdfd;"/><path d="m418.42,2.13h1.01v7.61h-1v-1.01c-.48.76-1.11,1.14-1.89,1.14-.63,0-1.17-.25-1.62-.76s-.67-1.11-.67-1.82.23-1.29.69-1.78,1-.75,1.64-.75c.38,0,.73.11,1.06.32.33.21.59.49.79.83v-3.78Zm.12,5.18c0-.43-.16-.81-.48-1.13s-.69-.48-1.13-.48-.84.16-1.15.47c-.32.31-.47.69-.47,1.14s.16.81.48,1.13c.32.32.69.48,1.12.48.45,0,.84-.16,1.16-.47s.48-.69.48-1.14Z" style="fill:#fdfdfd;"/><path d="m425.06,4.9h1.02v4.83h-1.02v-.96c-.5.73-1.11,1.1-1.85,1.1-.64,0-1.18-.25-1.63-.75s-.68-1.11-.68-1.82c0-.68.23-1.27.68-1.77s.99-.76,1.6-.76c.38,0,.74.1,1.08.31s.6.48.79.81v-.98Zm.14,2.43c0-.44-.16-.82-.48-1.13s-.7-.47-1.14-.47-.81.16-1.13.47c-.32.31-.48.68-.48,1.1,0,.46.16.85.47,1.17.31.32.69.48,1.14.48s.82-.16,1.14-.48.48-.7.48-1.13Z" style="fill:#fdfdfd;"/><path d="m432.43,7.51h-4.12c.09.5.29.86.61,1.09s.67.34,1.04.34c.58,0,1.06-.24,1.45-.72l.74.56c-.56.72-1.31,1.08-2.24,1.08-.72,0-1.32-.25-1.8-.74s-.73-1.1-.73-1.83c0-.68.25-1.28.74-1.78s1.09-.75,1.8-.75,1.29.25,1.79.76.74,1.17.73,1.98Zm-4.02-.81h2.95c-.33-.66-.81-1-1.45-1-.7,0-1.2.33-1.5,1Z" style="fill:#fdfdfd;"/><path d="m433.51,9.73v-4.83h1.01v.74c.24-.3.47-.53.68-.67s.47-.21.75-.21c.37,0,.66.08.86.24s.39.42.53.77c.25-.35.5-.61.74-.77s.51-.24.83-.24c.38,0,.72.14.99.43s.42.63.42,1.02v3.52h-1.02v-3.25c0-.54-.26-.8-.79-.8-.3,0-.56.14-.77.41s-.31.61-.31,1.01v2.63h-1.02v-3.12c0-.63-.26-.95-.78-.95-.31,0-.57.13-.79.39s-.32.58-.32.96v2.72h-1.01Z" style="fill:#fdfdfd;"/><path d="m441.34,7.29c0-.66.26-1.25.78-1.76s1.12-.77,1.8-.77,1.3.25,1.82.76.78,1.1.78,1.77-.25,1.28-.76,1.8-1.1.78-1.77.78c-.71,0-1.33-.26-1.86-.77s-.79-1.11-.79-1.8Zm4.2,0c0-.41-.16-.77-.47-1.07s-.68-.46-1.11-.46-.82.15-1.14.46-.48.67-.48,1.1.16.76.48,1.07c.32.31.7.46,1.13.46s.79-.16,1.11-.47c.32-.31.47-.68.47-1.09Z" style="fill:#fdfdfd;"/><path d="m447.42,9.73v-4.83h1v.8c.29-.32.56-.56.8-.71s.5-.23.8-.23c.44,0,.81.14,1.12.43s.47.64.47,1.04v3.49h-1.02v-3.19c0-.26-.08-.48-.25-.65s-.39-.26-.65-.26c-.34,0-.63.14-.88.43s-.37.63-.37,1.04v2.63h-1.01Z" style="fill:#fdfdfd;"/><path d="m327.79,15.96h-2.03v-.6h2.77v4.38h-.75v-3.77Zm-.3-2.1c0-.34.25-.58.59-.58s.59.23.59.58-.25.58-.59.58-.59-.22-.59-.58Z" style="fill:#fdfdfd;"/><path d="m330.79,17.48c0-2.29,1.16-3.47,2.65-3.47,1.24,0,1.83.93,1.83,2.14v2.67h-.45l-.06-.52h-.04c-.26.33-.72.63-1.19.63-.64,0-1.16-.45-1.16-1.18,0-.92.85-1.35,2.38-1.54v-.13c0-.86-.4-1.58-1.34-1.58-1.08,0-2.04,1.01-2.04,3s.92,3.02,2.08,3.02c.54,0,.92-.14,1.27-.4l.25.4c-.47.32-.95.5-1.54.5-1.42,0-2.63-1.23-2.63-3.55Zm3.89.36v-1.13c-1.23.18-1.72.49-1.72,1.04,0,.42.28.67.72.67.32,0,.67-.2,1-.57Z" style="fill:#fdfdfd;"/><path d="m337.96,18.26v-4.34h-1.55v-.6h2.3v5c0,.63.34.9.86.9.25,0,.52-.06.82-.2l.19.56c-.4.17-.69.26-1.17.26-.94,0-1.45-.54-1.45-1.58Z" style="fill:#fdfdfd;"/><path d="m341.87,18.6c0-.98.92-1.46,3.18-1.64-.03-.59-.32-1.1-1.16-1.1-.57,0-1.12.27-1.53.52l-.3-.5c.45-.29,1.19-.63,1.95-.63,1.2,0,1.78.71,1.78,1.8v2.68h-.62l-.06-.59h-.03c-.48.38-1.11.7-1.72.7-.82,0-1.49-.46-1.49-1.24Zm3.18,0v-1.13c-1.87.14-2.44.51-2.44,1.09,0,.5.45.69.96.69s.98-.23,1.49-.65Z" style="fill:#fdfdfd;"/><path d="m347.07,15.36h.59l.06.58h.02c.23-.41.5-.68,1-.68.43,0,.7.25.83.76.25-.47.52-.76,1.03-.76.61,0,.97.48.97,1.35v3.13h-.74v-3.08c0-.5-.14-.76-.47-.76-.31,0-.47.22-.7.67v3.17h-.68v-3.08c0-.5-.13-.76-.45-.76-.31,0-.5.22-.72.67v3.17h-.74v-4.38Z" style="fill:#fdfdfd;"/><path d="m352.67,18.6c0-.98.92-1.46,3.18-1.64-.03-.59-.32-1.1-1.16-1.1-.57,0-1.13.27-1.53.52l-.3-.5c.45-.29,1.19-.63,1.95-.63,1.2,0,1.78.71,1.78,1.8v2.68h-.62l-.06-.59h-.03c-.48.38-1.11.7-1.72.7-.82,0-1.5-.46-1.5-1.24Zm3.18,0v-1.13c-1.87.14-2.44.51-2.44,1.09,0,.5.45.69.96.69s.98-.23,1.49-.65Z" style="fill:#fdfdfd;"/><path d="m359.32,19.07c0-.45.32-.77.73-.77s.73.32.73.77-.32.77-.73.77-.73-.31-.73-.77Z" style="fill:#fdfdfd;"/><path d="m365.58,15.96h-2.03v-.6h2.77v4.38h-.75v-3.77Zm-.3-2.1c0-.34.25-.58.59-.58s.59.23.59.58-.25.58-.59.58-.59-.22-.59-.58Z" style="fill:#fdfdfd;"/><path d="m368.87,17.55c0-1.47,1.12-2.3,2.44-2.3.71,0,1.23.29,1.59.64l-.37.48c-.36-.31-.74-.5-1.2-.5-1.01,0-1.7.68-1.7,1.68s.68,1.67,1.68,1.67c.54,0,.99-.24,1.35-.55l.33.49c-.49.43-1.09.68-1.74.68-1.37,0-2.4-.84-2.4-2.29Z" style="fill:#fdfdfd;"/><path d="m374.24,18.08v-2.72h.75v2.62c0,.82.29,1.22,1.01,1.22.5,0,.87-.23,1.36-.8v-3.03h.75v4.38h-.62l-.06-.77h-.04c-.44.51-.95.87-1.63.87-1.04,0-1.51-.61-1.51-1.76Z" style="fill:#fdfdfd;"/></g><g id="DEDICATED_TO_LAMADAEMON_IiiiIiIIiI"><path d="m241.45,345.15h1.01v7.61h-1v-1.01c-.48.76-1.11,1.14-1.89,1.14-.63,0-1.17-.25-1.62-.76s-.67-1.11-.67-1.82.23-1.29.69-1.78,1-.75,1.64-.75c.38,0,.73.11,1.06.32.33.21.59.49.79.83v-3.78Zm.12,5.18c0-.43-.16-.81-.48-1.13s-.69-.48-1.13-.48-.84.16-1.15.47c-.32.31-.47.69-.47,1.14s.16.81.48,1.13c.32.32.69.48,1.12.48.45,0,.84-.16,1.16-.47s.48-.69.48-1.14Z" style="fill:#fff4eb;"/><path d="m248.84,350.54h-4.12c.09.5.29.86.61,1.09s.67.34,1.04.34c.58,0,1.06-.24,1.45-.72l.74.56c-.56.72-1.31,1.08-2.24,1.08-.72,0-1.32-.25-1.8-.74s-.73-1.1-.73-1.83c0-.68.25-1.28.74-1.78s1.09-.75,1.8-.75,1.29.25,1.79.76.74,1.17.73,1.98Zm-4.02-.81h2.95c-.33-.66-.81-1-1.45-1-.7,0-1.2.33-1.5,1Z" style="fill:#fff4eb;"/><path d="m254.07,345.15h1.01v7.61h-1v-1.01c-.48.76-1.11,1.14-1.89,1.14-.63,0-1.17-.25-1.62-.76s-.67-1.11-.67-1.82.23-1.29.69-1.78,1-.75,1.64-.75c.38,0,.73.11,1.06.32.33.21.59.49.79.83v-3.78Zm.12,5.18c0-.43-.16-.81-.48-1.13s-.69-.48-1.13-.48-.84.16-1.15.47c-.32.31-.47.69-.47,1.14s.16.81.48,1.13c.32.32.69.48,1.12.48.45,0,.84-.16,1.16-.47s.48-.69.48-1.14Z" style="fill:#fff4eb;"/><path d="m256.45,346.34c0-.21.08-.39.23-.55s.34-.23.56-.23.39.08.55.23.23.34.23.55-.08.4-.23.55-.34.23-.55.23-.4-.08-.56-.23-.23-.34-.23-.55Zm.29,1.59h1.01v4.83h-1.01v-4.83Z" style="fill:#fff4eb;"/><path d="m262.9,351.28v1.17c-.52.3-1.02.45-1.51.45-.67,0-1.25-.25-1.75-.75s-.75-1.08-.75-1.74c0-.75.25-1.37.75-1.87s1.13-.74,1.88-.74c.45,0,.91.12,1.39.35v1.14c-.51-.33-1-.49-1.45-.49-.42,0-.79.15-1.11.45s-.47.64-.47,1.04c0,.45.15.83.45,1.13s.66.46,1.09.46.94-.2,1.5-.59Z" style="fill:#fff4eb;"/><path d="m267.96,347.93h1.02v4.83h-1.02v-.96c-.5.73-1.11,1.1-1.85,1.1-.64,0-1.18-.25-1.63-.75s-.68-1.11-.68-1.82c0-.68.23-1.27.68-1.77s.99-.76,1.6-.76c.38,0,.74.1,1.08.31s.6.48.79.81v-.98Zm.14,2.43c0-.44-.16-.82-.48-1.13s-.7-.47-1.14-.47-.81.16-1.13.47c-.32.31-.48.68-.48,1.1,0,.46.16.85.47,1.17.31.32.69.48,1.14.48s.82-.16,1.14-.48.48-.7.48-1.13Z" style="fill:#fff4eb;"/><path d="m270.83,346.52h1.02v1.41h1.01v.93h-1.01v3.9h-1.02v-3.9h-.8v-.94h.8v-1.39Z" style="fill:#fff4eb;"/><path d="m278.59,350.54h-4.12c.09.5.29.86.61,1.09s.67.34,1.04.34c.58,0,1.06-.24,1.45-.72l.74.56c-.56.72-1.31,1.08-2.24,1.08-.72,0-1.32-.25-1.8-.74s-.73-1.1-.73-1.83c0-.68.25-1.28.74-1.78s1.09-.75,1.8-.75,1.29.25,1.79.76.74,1.17.73,1.98Zm-4.02-.81h2.95c-.33-.66-.81-1-1.45-1-.7,0-1.2.33-1.5,1Z" style="fill:#fff4eb;"/><path d="m283.81,345.15h1.01v7.61h-1v-1.01c-.48.76-1.11,1.14-1.89,1.14-.63,0-1.17-.25-1.62-.76s-.67-1.11-.67-1.82.23-1.29.69-1.78,1-.75,1.64-.75c.38,0,.73.11,1.06.32.33.21.59.49.79.83v-3.78Zm.12,5.18c0-.43-.16-.81-.48-1.13s-.69-.48-1.13-.48-.84.16-1.15.47c-.32.31-.47.69-.47,1.14s.16.81.48,1.13c.32.32.69.48,1.12.48.45,0,.84-.16,1.16-.47s.48-.69.48-1.14Z" style="fill:#fff4eb;"/><path d="m290.02,346.52h1.02v1.41h1.01v.93h-1.01v3.9h-1.02v-3.9h-.8v-.94h.8v-1.39Z" style="fill:#fff4eb;"/><path d="m292.67,350.32c0-.66.26-1.25.78-1.76s1.12-.77,1.8-.77,1.3.25,1.82.76.78,1.1.78,1.77-.25,1.28-.76,1.8-1.1.78-1.77.78c-.71,0-1.33-.26-1.86-.77s-.79-1.11-.79-1.8Zm4.2,0c0-.41-.16-.77-.47-1.07s-.68-.46-1.11-.46-.82.15-1.14.46-.48.67-.48,1.1.16.76.48,1.07c.32.31.7.46,1.13.46s.79-.16,1.11-.47c.32-.31.47-.68.47-1.09Z" style="fill:#fff4eb;"/><path d="m302.39,345.15h1.02v7.61h-1.02v-7.61Z" style="fill:#fff4eb;"/><path d="m308.96,347.93h1.02v4.83h-1.02v-.96c-.5.73-1.11,1.1-1.85,1.1-.64,0-1.18-.25-1.63-.75s-.68-1.11-.68-1.82c0-.68.23-1.27.68-1.77s.99-.76,1.6-.76c.38,0,.74.1,1.08.31s.6.48.79.81v-.98Zm.14,2.43c0-.44-.16-.82-.48-1.13s-.7-.47-1.14-.47-.81.16-1.13.47c-.32.31-.48.68-.48,1.1,0,.46.16.85.47,1.17.31.32.69.48,1.14.48s.82-.16,1.14-.48.48-.7.48-1.13Z" style="fill:#fff4eb;"/><path d="m311.41,352.76v-4.83h1.01v.74c.24-.3.47-.53.68-.67s.47-.21.75-.21c.37,0,.66.08.86.24s.39.42.53.77c.25-.35.5-.61.74-.77s.51-.24.83-.24c.38,0,.72.14.99.43s.42.63.42,1.02v3.52h-1.02v-3.25c0-.54-.26-.8-.79-.8-.3,0-.56.14-.77.41s-.31.61-.31,1.01v2.63h-1.02v-3.12c0-.63-.26-.95-.78-.95-.31,0-.57.13-.79.39s-.32.58-.32.96v2.72h-1.01Z" style="fill:#fff4eb;"/><path d="m323.58,347.93h1.02v4.83h-1.02v-.96c-.5.73-1.11,1.1-1.85,1.1-.64,0-1.18-.25-1.63-.75s-.68-1.11-.68-1.82c0-.68.23-1.27.68-1.77s.99-.76,1.6-.76c.38,0,.74.1,1.08.31s.6.48.79.81v-.98Zm.14,2.43c0-.44-.16-.82-.48-1.13s-.7-.47-1.14-.47-.81.16-1.13.47c-.32.31-.48.68-.48,1.1,0,.46.16.85.47,1.17.31.32.69.48,1.14.48s.82-.16,1.14-.48.48-.7.48-1.13Z" style="fill:#fff4eb;"/><path d="m330.18,345.15h1.01v7.61h-1v-1.01c-.48.76-1.11,1.14-1.89,1.14-.63,0-1.17-.25-1.62-.76s-.67-1.11-.67-1.82.23-1.29.69-1.78,1-.75,1.64-.75c.38,0,.73.11,1.06.32.33.21.59.49.79.83v-3.78Zm.12,5.18c0-.43-.16-.81-.48-1.13s-.69-.48-1.13-.48-.84.16-1.15.47c-.32.31-.47.69-.47,1.14s.16.81.48,1.13c.32.32.69.48,1.12.48.45,0,.84-.16,1.16-.47s.48-.69.48-1.14Z" style="fill:#fff4eb;"/><path d="m336.82,347.93h1.02v4.83h-1.02v-.96c-.5.73-1.11,1.1-1.85,1.1-.64,0-1.18-.25-1.63-.75s-.68-1.11-.68-1.82c0-.68.23-1.27.68-1.77s.99-.76,1.6-.76c.38,0,.74.1,1.08.31s.6.48.79.81v-.98Zm.14,2.43c0-.44-.16-.82-.48-1.13s-.7-.47-1.14-.47-.81.16-1.13.47c-.32.31-.48.68-.48,1.1,0,.46.16.85.47,1.17.31.32.69.48,1.14.48s.82-.16,1.14-.48.48-.7.48-1.13Z" style="fill:#fff4eb;"/><path d="m344.2,350.54h-4.12c.09.5.29.86.61,1.09s.67.34,1.04.34c.58,0,1.06-.24,1.45-.72l.74.56c-.56.72-1.31,1.08-2.24,1.08-.72,0-1.32-.25-1.8-.74s-.73-1.1-.73-1.83c0-.68.25-1.28.74-1.78s1.09-.75,1.8-.75,1.29.25,1.79.76.74,1.17.73,1.98Zm-4.02-.81h2.95c-.33-.66-.81-1-1.45-1-.7,0-1.2.33-1.5,1Z" style="fill:#fff4eb;"/><path d="m345.28,352.76v-4.83h1.01v.74c.24-.3.47-.53.68-.67s.47-.21.75-.21c.37,0,.66.08.86.24s.39.42.53.77c.25-.35.5-.61.74-.77s.51-.24.83-.24c.38,0,.72.14.99.43s.42.63.42,1.02v3.52h-1.02v-3.25c0-.54-.26-.8-.79-.8-.3,0-.56.14-.77.41s-.31.61-.31,1.01v2.63h-1.02v-3.12c0-.63-.26-.95-.78-.95-.31,0-.57.13-.79.39s-.32.58-.32.96v2.72h-1.01Z" style="fill:#fff4eb;"/><path d="m353.11,350.32c0-.66.26-1.25.78-1.76s1.12-.77,1.8-.77,1.3.25,1.82.76.78,1.1.78,1.77-.25,1.28-.76,1.8-1.1.78-1.77.78c-.71,0-1.33-.26-1.86-.77s-.79-1.11-.79-1.8Zm4.2,0c0-.41-.16-.77-.47-1.07s-.68-.46-1.11-.46-.82.15-1.14.46-.48.67-.48,1.1.16.76.48,1.07c.32.31.7.46,1.13.46s.79-.16,1.11-.47c.32-.31.47-.68.47-1.09Z" style="fill:#fff4eb;"/><path d="m359.19,352.76v-4.83h1v.8c.29-.32.56-.56.8-.71s.5-.23.8-.23c.44,0,.81.14,1.12.43s.47.64.47,1.04v3.49h-1.02v-3.19c0-.26-.08-.48-.25-.65s-.39-.26-.65-.26c-.34,0-.63.14-.88.43s-.37.63-.37,1.04v2.63h-1.01Z" style="fill:#fff4eb;"/><path d="m239.55,358.99h-2.03v-.6h2.77v4.38h-.75v-3.77Zm-.3-2.1c0-.34.25-.58.59-.58s.59.23.59.58-.25.58-.59.58-.59-.22-.59-.58Z" style="fill:#fff4eb;"/><path d="m242.56,360.51c0-2.29,1.16-3.47,2.65-3.47,1.24,0,1.83.93,1.83,2.14v2.67h-.45l-.06-.52h-.04c-.26.33-.72.63-1.19.63-.64,0-1.16-.45-1.16-1.18,0-.92.85-1.35,2.38-1.54v-.13c0-.86-.4-1.58-1.34-1.58-1.08,0-2.04,1.01-2.04,3s.92,3.02,2.08,3.02c.54,0,.92-.14,1.27-.4l.25.4c-.47.32-.95.5-1.54.5-1.42,0-2.63-1.23-2.63-3.55Zm3.89.36v-1.13c-1.23.18-1.72.49-1.72,1.04,0,.42.28.67.72.67.32,0,.67-.2,1-.57Z" style="fill:#fff4eb;"/><path d="m249.73,361.29v-4.34h-1.55v-.6h2.3v5c0,.63.34.9.86.9.25,0,.52-.06.82-.2l.19.56c-.4.17-.69.26-1.17.26-.94,0-1.45-.54-1.45-1.58Z" style="fill:#fff4eb;"/><path d="m253.64,361.63c0-.98.92-1.46,3.18-1.64-.03-.59-.32-1.1-1.16-1.1-.57,0-1.12.27-1.53.52l-.3-.5c.45-.29,1.19-.63,1.95-.63,1.2,0,1.78.71,1.78,1.8v2.68h-.62l-.06-.59h-.03c-.48.38-1.11.7-1.72.7-.82,0-1.49-.46-1.49-1.24Zm3.18,0v-1.13c-1.87.14-2.44.51-2.44,1.09,0,.5.45.69.96.69s.98-.23,1.49-.65Z" style="fill:#fff4eb;"/><path d="m258.84,358.39h.59l.06.58h.02c.23-.41.5-.68,1-.68.43,0,.7.25.83.76.25-.47.52-.76,1.03-.76.61,0,.97.48.97,1.35v3.13h-.74v-3.08c0-.5-.14-.76-.47-.76-.31,0-.47.22-.7.67v3.17h-.68v-3.08c0-.5-.13-.76-.45-.76-.31,0-.5.22-.72.67v3.17h-.74v-4.38Z" style="fill:#fff4eb;"/><path d="m264.44,361.63c0-.98.92-1.46,3.18-1.64-.03-.59-.32-1.1-1.16-1.1-.57,0-1.13.27-1.53.52l-.3-.5c.45-.29,1.19-.63,1.95-.63,1.2,0,1.78.71,1.78,1.8v2.68h-.62l-.06-.59h-.03c-.48.38-1.11.7-1.72.7-.82,0-1.5-.46-1.5-1.24Zm3.18,0v-1.13c-1.87.14-2.44.51-2.44,1.09,0,.5.45.69.96.69s.98-.23,1.49-.65Z" style="fill:#fff4eb;"/><path d="m271.09,362.1c0-.45.32-.77.73-.77s.73.32.73.77-.32.77-.73.77-.73-.31-.73-.77Z" style="fill:#fff4eb;"/><path d="m277.35,358.99h-2.03v-.6h2.77v4.38h-.75v-3.77Zm-.3-2.1c0-.34.25-.58.59-.58s.59.23.59.58-.25.58-.59.58-.59-.22-.59-.58Z" style="fill:#fff4eb;"/><path d="m280.63,360.58c0-1.47,1.12-2.3,2.44-2.3.71,0,1.23.29,1.59.64l-.37.48c-.36-.31-.74-.5-1.2-.5-1.01,0-1.7.68-1.7,1.68s.68,1.67,1.68,1.67c.54,0,.99-.24,1.35-.55l.33.49c-.49.43-1.09.68-1.74.68-1.37,0-2.4-.84-2.4-2.29Z" style="fill:#fff4eb;"/><path d="m286.01,361.1v-2.72h.75v2.62c0,.82.29,1.22,1.01,1.22.5,0,.87-.23,1.36-.8v-3.03h.75v4.38h-.62l-.06-.77h-.04c-.44.51-.95.87-1.63.87-1.04,0-1.51-.61-1.51-1.76Z" style="fill:#fff4eb;"/></g></svg>